<!--?xml version="1.0" encoding="utf-8"?-->
<!-- Generator: Adobe Illustrator 19.1.1, SVG Export Plug-In . SVG Version: 6.00 Build 0)  -->
<svg version="1.1" id="_x31_0" xmlns="http://www.w3.org/2000/svg" xmlns:xlink="http://www.w3.org/1999/xlink" x="0px" y="0px" viewBox="0 0 512 512" style="width: 48px; height: 48px; opacity: 1;" xml:space="preserve">
<style type="text/css">
	.st0{fill:#374149;}
</style>
<g>
	<path class="st0" d="M308.758,328.379l-17.274-13.469c-4.312-3.363-9.484-5.137-14.949-5.137c-6.106,0-11.953,2.266-16.473,6.386
		c-2.664,2.43-6.238,5.848-8.141,8.332l0.426,0.762l0.171,0.508l-1.367-1.043c-7.222,0-32.519-22-39.281-29.031
		c-7.137-6.855-29.371-32.434-28.762-40c2.476-1.898,5.898-5.476,8.336-8.148c8.038-8.821,8.566-22.031,1.25-31.414l-13.469-17.277
		c-1.023-1.309-2.274-2.566-4.023-3.997c-0.664-0.531-1.348-1.027-2.32-1.648c-3.07-1.906-6.438-3.086-10.094-3.516
		c-0.984-0.113-1.976-0.171-2.976-0.171c-1.973,0-3.906,0.234-5.75,0.699c-6.894,1.742-32.539,18.39-31.93,31.965
		c0.156,3.476,2.156,9.625,6.125,18.804c7.93,18.344,18.051,35.914,30.086,52.234c15.789,21.446,34.672,40.321,56.117,56.094
		c16.297,12.015,33.844,22.117,52.156,30.031c9.188,3.969,15.336,5.976,18.805,6.125l0.477,0.015
		c12.879,0,29.512-24.117,31.492-31.941C319.754,344.187,316.367,334.309,308.758,328.379z" style="fill: rgb(251, 250, 245);"></path>
	<path class="st0" d="M336.938,171.938c-20.266-20.266-45.871-33.289-73.684-37.778c-8.527-1.375-16.258,5.282-16.266,13.918v0.019
		c-0.004,6.793,4.817,12.77,11.528,13.844c22.117,3.535,42.461,13.847,58.515,29.902c16.086,16.086,26.426,36.426,29.973,58.507
		c1.078,6.696,7.046,11.512,13.828,11.512c8.649,0,15.317-7.746,13.93-16.281C370.242,217.793,357.199,192.203,336.938,171.938z" style="fill: rgb(251, 250, 245);"></path>
	<path class="st0" d="M256.969,219.305c7.582,2.422,14.504,6.613,20.246,12.355c5.766,5.766,9.972,12.691,12.414,20.254
		c1.894,5.882,7.238,9.945,13.418,9.945h0.023c9.344,0,16.313-9.004,13.539-17.926c-3.734-12.035-10.348-23.043-19.489-32.183
		c-9.144-9.145-20.164-15.758-32.203-19.493c-8.918-2.766-17.922,4.188-17.93,13.524v0.078
		C246.981,212.054,251.066,217.418,256.969,219.305z" style="fill: rgb(251, 250, 245);"></path>
	<path class="st0" d="M256,0C114.614,0,0,114.614,0,256c0,141.383,114.614,256,256,256s256-114.617,256-256
		C512,114.614,397.386,0,256,0z M256,448c-105.867,0-192-86.133-192-192S150.133,64,256,64s192,86.133,192,192S361.867,448,256,448z
		" style="fill: rgb(251, 250, 245);"></path>
</g>
</svg>
